PathFileType	4	(X/Y/Z)	..\data\2014014\dynamic\2014014_C4_04.trc
DataRate	CameraRate	NumFrames	NumMarkers	Units	OrigDataRate	OrigDataStartFrame	OrigNumFrames
100.000000	100.000000	4	52	mm	100.000000	0	178
Frame#	Time	L_IAS			L_IPS			R_IPS			R_IAS			L_FTC			L_FLE			L_FME			L_FAX			L_TTC			L_FAL			L_TAM			L_FCC			L_FM1			L_FM2			L_FM5			R_FTC			R_FLE			R_FME			R_FAX			R_TTC			R_FAL			R_TAM			R_FCC			R_FM1			R_FM2			R_FM5			CV7			TV10			SXS			SJN			L_SIA			L_SRS			L_SAA			L_SAE			L_HLE			L_HME			L_UOA			L_RSP			L_UHE			L_HM2			L_HM5			R_SIA			R_SRS			R_SAA			R_SAE			R_HLE			R_HME			R_UOA			R_RSP			R_UHE			R_HM2			R_HM5			
		X1	Y1	Z1	X2	Y2	Z2	X3	Y3	Z3	X4	Y4	Z4	X5	Y5	Z5	X6	Y6	Z6	X7	Y7	Z7	X8	Y8	Z8	X9	Y9	Z9	X10	Y10	Z10	X11	Y11	Z11	X12	Y12	Z12	X13	Y13	Z13	X14	Y14	Z14	X15	Y15	Z15	X16	Y16	Z16	X17	Y17	Z17	X18	Y18	Z18	X19	Y19	Z19	X20	Y20	Z20	X21	Y21	Z21	X22	Y22	Z22	X23	Y23	Z23	X24	Y24	Z24	X25	Y25	Z25	X26	Y26	Z26	X27	Y27	Z27	X28	Y28	Z28	X29	Y29	Z29	X30	Y30	Z30	X31	Y31	Z31	X32	Y32	Z32	X33	Y33	Z33	X34	Y34	Z34	X35	Y35	Z35	X36	Y36	Z36	X37	Y37	Z37	X38	Y38	Z38	X39	Y39	Z39	X40	Y40	Z40	X41	Y41	Z41	X42	Y42	Z42	X43	Y43	Z43	X44	Y44	Z44	X45	Y45	Z45	X46	Y46	Z46	X47	Y47	Z47	X48	Y48	Z48	X49	Y49	Z49	X50	Y50	Z50	X51	Y51	Z51	X52	Y52	Z52	

1	0	-60.99525070190431	979.818786621094	-324.9309082031251	-273.4064025878907	996.0740966796877	-261.2213745117188	-274.7042236328126	996.4309082031252	-157.8652496337891	-75.98196411132814	976.2182617187502	-69.89425659179689	-125.2886352539063	881.1781005859377	-401.5909423828126	-6.093544006347658	488.2123413085939	-341.0553588867188	-3.44633960723877	483.743621826172	-201.8734588623047	-4.088702678680421	427.5477294921876	-342.2232055664063	69.18718719482423	440.8824462890626	-293.0358886718751	120.005355834961	71.66482543945314	-315.4223632812501	140.2412109375	113.4708633422852	-221.6420593261719	93.23164367675783	11.63738346099854	-251.4456634521485	282.6725769042969	77.17832946777345	-232.1318817138672	276.9315795898438	93.10317993164064	-287.7598876953126	239.3297576904297	54.05308151245119	-338.3240356445313	-165.4353790283203	877.6595458984377	-16.84876441955567	-269.3423156738282	482.5564880371095	-106.3589172363282	-227.0466308593751	482.3538513183595	-229.7906341552735	-305.0410156250001	434.9144897460939	-106.2669219970703	-235.3838653564454	408.0279846191407	-143.8690338134766	-418.6920471191407	73.60137176513673	-135.7124328613282	-366.3431701660157	95.83242797851564	-224.4118347167969	-450.8403625488282	38.42320251464844	-203.3793487548829	-251.2748260498047	18.72437477111817	-208.4060058593751	-249.4039916992188	33.73353958129884	-149.5558166503907	-299.8034667968751	15.00624752044678	-94.7146682739258	-204.9038543701172	1521.555419921875	-189.4998779296875	-306.8487854003907	1280.801635742188	-196.9911193847657	-37.52777481079102	1238.932861328125	-203.0839996337891	-81.45603942871095	1422.926879882813	-192.2674407958985	-333.6151428222657	1313.552124023438	-295.9389343261719	-282.5186462402344	1452.802734375	-300.0220642089844	-244.9600982666016	1450.118896484375	-366.5270996093751	-200.1047515869141	1444.85205078125	-396.7671508789064	-259.3485717773438	1111.319946289063	-483.900115966797	-286.4119567871094	1105.946411132813	-394.7524414062501	-299.0031433105469	1099.144897460938	-451.4814758300782	-217.0373535156251	842.3384399414065	-453.7454528808595	-290.7434387207032	857.8809204101565	-499.9204406738282	-210.2659759521485	752.0491943359376	-470.8128051757814	-314.9712829589844	776.5660400390627	-503.3026123046876	-311.2403564453126	1304.134399414063	-68.02180480957033	-256.1376953125001	1442.998168945313	-55.29005813598634	-200.9007568359376	1423.066284179688	6.31990957260132	-156.8958740234375	1419.62060546875	23.87780952453614	-116.0267181396485	1088.3916015625	117.9087448120117	-146.8584899902344	1063.01318359375	23.46261787414551	-155.0462799072266	1055.743041992188	92.8709182739258	46.91129684448243	876.1724243164065	57.066707611084	-10.76162624359131	860.4185180664065	125.3735733032227	112.932357788086	809.7282714843752	82.13362884521486	18.56393814086914	765.9212646484376	124.2433242797852	
2	0.01	-48.76596069335939	978.0665283203127	-325.3753662109376	-261.5197448730469	994.6121215820315	-262.2667541503907	-262.8506164550782	995.0576782226565	-158.9593811035157	-64.47578430175783	974.9101562500002	-70.12236785888673	-113.0008392333985	879.4592285156252	-402.1412048339845	3.797758102416993	486.395965576172	-339.2429199218751	4.87942934036255	481.9850158691407	-199.8845367431641	6.964298248291017	426.1278381347657	-340.7933044433594	79.50088500976564	440.4456787109376	-290.1308593750001	136.6627807617188	72.2160110473633	-314.9114685058594	155.126708984375	113.7607498168946	-220.6723175048829	109.6919555664063	11.82617473602295	-251.6909179687501	298.2583312988282	79.38044738769533	-229.1806793212891	293.3366088867188	94.97438812255861	-284.9433288574219	256.8269653320313	55.54037094116212	-335.9545593261719	-154.5142669677735	876.6486816406252	-17.29286575317383	-261.1179809570313	482.3652648925782	-106.1453399658203	-218.1255035400391	481.4552612304689	-229.4670562744141	-297.4894104003907	435.203582763672	-106.0651245117188	-228.1534271240235	407.2230834960939	-143.7130432128907	-417.6886596679689	75.76673889160158	-135.4874267578125	-365.3285522460938	97.53149414062503	-224.2239990234376	-450.6678466796876	41.34588241577149	-203.1495971679688	-251.1037902832032	18.68280601501465	-208.4016418457032	-249.1517028808594	33.82021713256837	-149.582015991211	-299.7789611816407	15.17173194885254	-94.82446289062501	-193.7088165283204	1520.093872070313	-191.0462341308594	-295.3811645507813	1279.232177734375	-198.2273254394532	-25.82705307006837	1237.784301757813	-203.7266540527344	-70.15940856933595	1421.589477539063	-193.4406433105469	-322.1272583007813	1311.725952148438	-297.1228637695313	-271.0782470703126	1451.018188476563	-301.4799194335938	-233.5001220703126	1448.180053710938	-367.9102172851563	-188.6851959228516	1442.864379882813	-398.0443725585939	-248.6968536376954	1109.317504882813	-484.460418701172	-275.5166320800782	1104.1728515625	-395.251678466797	-288.2463684082032	1097.297729492188	-451.9075622558595	-207.461654663086	840.2811279296877	-453.8276977539064	-281.1457519531251	855.9930419921877	-499.9985351562501	-201.1839294433594	749.7568359375001	-470.4283142089845	-305.7776794433594	774.7391357421877	-502.9809875488282	-299.9506225585938	1302.611450195313	-69.43935394287111	-245.0827636718751	1441.744873046875	-56.7106399536133	-189.8875122070313	1421.921142578125	5.010834217071534	-145.8192749023438	1418.495727539063	22.55553436279297	-104.5420761108399	1087.706420898438	117.5608901977539	-135.089111328125	1061.945556640625	23.12208557128907	-143.4327850341797	1054.825805664063	92.51567840576173	59.34615707397462	876.070251464844	57.55452728271486	1.705152988433838	860.1294555664065	125.8111572265625	125.7092437744141	810.1929321289065	83.19825744628908	31.54981994628907	765.8432617187501	125.046012878418	
3	0.02	-36.35239410400391	976.5407714843752	-325.8919677734376	-249.4261322021485	993.3206176757815	-263.3028564453126	-250.7920379638672	993.7930297851565	-160.0528106689453	-52.73451995849611	973.712585449219	-70.40178680419923	-100.4310836791992	878.089050292969	-402.7247924804689	14.09387111663819	484.877899169922	-337.8930053710938	13.61025905609131	480.4870605468751	-198.4543151855469	17.9980640411377	424.8784484863282	-339.7425537109376	89.78682708740236	439.8169250488282	-287.6846313476563	150.7840270996094	72.3838577270508	-314.2415161132813	167.7291717529297	113.5387420654297	-219.5803527832032	122.98388671875	12.17612934112549	-251.6791992187501	311.2207641601563	80.02475738525392	-226.1450500488282	307.2035217285157	95.23705291748048	-282.0556030273438	271.4427185058594	55.68007278442384	-333.4341735839844	-143.3724517822266	875.7269287109377	-17.78568458557129	-252.4855499267579	482.2246398925782	-105.727767944336	-208.8192749023438	480.5597534179689	-228.9835968017579	-289.5301818847657	435.5616455078126	-105.6635055541992	-220.5625305175782	406.434539794922	-143.3723602294922	-416.5509643554689	78.18006134033205	-134.9939422607422	-364.2577819824219	99.453483581543	-223.7727966308594	-450.5210571289064	44.68209075927735	-202.5947875976563	-250.969711303711	18.60574531555176	-208.398666381836	-248.9039154052735	33.89336013793946	-149.60791015625	-299.7289428710938	15.22783660888672	-94.92144012451173	-182.4617309570313	1518.755249023438	-192.6922302246094	-283.8132629394532	1277.751953125	-199.5096282958985	-14.01826667785645	1236.779174804688	-204.4542083740235	-58.79052734375001	1420.3837890625	-194.6941223144532	-310.5173339843751	1309.950317382813	-298.3959350585938	-259.5578613281251	1449.3212890625	-303.0596313476563	-221.9286041259766	1446.341064453125	-369.4341125488282	-177.1474609375	1440.958862304688	-399.4292907714845	-237.6636505126954	1107.337768554688	-485.1495056152345	-264.3683776855469	1102.418090820313	-395.9286193847657	-277.1338500976563	1095.453491210938	-452.5204467773439	-197.4432067871094	838.2820434570315	-453.9764709472657	-271.0677795410157	854.1157836914065	-500.2134094238282	-191.5924530029297	747.5509643554689	-470.1257934570314	-296.0490417480469	772.9204711914065	-502.8311767578126	-288.6473388671876	1301.163330078125	-71.00611877441408	-233.9825439453126	1440.58349609375	-58.24584579467775	-178.9398193359375	1420.880737304688	3.639359235763551	-134.7403869628907	1417.455322265625	21.14198303222657	-93.21319580078126	1087.038208007813	117.0430297851563	-123.4151153564453	1060.941772460938	22.58530235290528	-131.9800872802735	1053.967651367188	91.9564895629883	71.41492462158205	875.8892822265627	57.97124481201173	13.79329872131348	859.7519531250002	126.1267166137696	138.02734375	810.4070434570315	84.17965698242189	43.98516845703126	765.6543579101564	125.7173614501953	
4	0.03	-23.76184463500977	975.3227539062502	-326.4914855957032	-237.1363220214844	992.2465820312502	-264.3234558105469	-238.527816772461	992.6646118164065	-161.1322021484375	-40.74817657470704	972.6513671875002	-70.76223754882814	-87.58164215087892	877.1455688476565	-403.356414794922	24.77045249938966	483.6889953613282	-337.0300598144532	22.79209327697754	479.2864379882814	-197.6031036376954	29.00134849548341	423.8127441406251	-339.0899353027344	100.0645065307617	439.022430419922	-285.7841796875001	162.5453186035157	72.1137161254883	-313.4633789062501	178.2402038574219	112.7953491210938	-218.4241027832032	133.3049774169922	12.63767337799073	-251.4400329589844	321.7682189941407	79.08412170410158	-223.1158752441407	318.7275695800782	93.86325073242189	-279.1858215332032	283.3501892089844	54.42958068847658	-330.8643493652344	-131.966064453125	874.900573730469	-18.34093093872071	-243.3552246093751	482.1216735839845	-105.0754089355469	-199.0874023437501	479.6639709472657	-228.3207244873047	-281.1098632812501	435.984344482422	-105.0341491699219	-212.5542602539063	405.6587524414064	-142.8012237548828	-415.2315368652345	80.86536407470705	-134.2203826904297	-363.0450134277344	101.6076354980469	-223.0296630859376	-450.3188781738282	48.47497558593751	-201.7217254638672	-250.8855895996094	18.47181129455567	-208.4090270996094	-248.6713867187501	33.92690658569337	-149.63720703125	-299.6684875488282	15.14642143249512	-95.01906585693361	-171.1619110107422	1517.578002929688	-194.4297332763672	-272.1491088867188	1276.400390625	-200.8218078613282	-2.114525556564331	1235.95068359375	-205.2785644531251	-47.35207748413087	1419.349975585938	-196.0315704345704	-298.7945556640626	1308.26708984375	-299.7432861328126	-247.9685821533204	1447.751831054688	-304.7472229003907	-210.2628936767579	1444.640991210938	-371.0870971679688	-165.5074310302735	1439.175659179688	-400.9189758300782	-226.2353820800782	1105.415405273438	-485.9556884765626	-252.9489288330079	1100.712036132813	-396.7673645019532	-265.6521606445313	1093.64501953125	-453.304412841797	-186.9684295654297	836.3709106445315	-454.1979980468751	-260.4997558593751	852.2856445312502	-500.5634765625001	-181.4846343994141	745.4650268554689	-469.9212951660157	-285.7756652832032	771.149353027344	-502.8695068359376	-277.3311767578126	1299.837890625	-72.6986541748047	-222.8192901611329	1439.5546875	-59.88192749023439	-168.057846069336	1419.992553710938	2.22404432296753	-123.6426315307617	1416.542236328125	19.64242553710938	-82.04286193847658	1086.423583984375	116.3536834716797	-111.845573425293	1060.039428710938	21.8520622253418	-120.6948547363282	1053.2080078125	91.19359588623048	83.11038208007814	875.6323852539065	58.30784225463869	25.47107696533204	859.3157348632815	126.3064880371094	149.8682861328125	810.3935546875002	85.0773391723633	55.84720611572267	765.3756103515626	126.2448120117188	
